<svg width="30" height="30" viewBox="0 0 30 30" fill="none" xmlns="http://www.w3.org/2000/svg">
<path d="M30.0005 0L24.5459 0L24.5459 18L30.0005 18L30.0005 0ZM0.000488281 16.5C0.000488281 18.15 1.22776 19.5 2.72776 19.5L11.3323 19.5L10.0369 26.355L9.99594 26.835C9.99594 27.45 10.2278 28.02 10.5959 28.425L12.0414 30L21.0141 20.115C21.5187 19.575 21.8187 18.825 21.8187 18L21.8187 3C21.8187 1.35 20.5914 0 19.0914 0L6.81867 0C5.68685 0 4.71867 0.749998 4.30958 1.83L0.191397 12.405C0.0686694 12.75 0.000488281 13.11 0.000488281 13.5V16.5Z" fill="#023A40"/>
</svg>
