<svg width="30" height="31" viewBox="0 0 30 31" fill="none" xmlns="http://www.w3.org/2000/svg">
<path d="M13.335 24.3679L14.19 19.5512C14.37 18.5679 14.13 17.5512 13.56 16.7845C12.99 16.0179 12.15 15.5679 11.25 15.5679H3V13.7679L6.855 3.9012H18.99C19.26 3.9012 19.5 4.16787 19.5 4.46787V17.5345L13.335 24.3679ZM12 30.5679L21.615 19.8845C22.185 19.2512 22.5 18.4012 22.5 17.5179V4.46787C22.5 2.31787 20.925 0.567871 18.99 0.567871H6.84C5.775 0.567871 4.8 1.18454 4.26 2.18454L0.255 12.4345C0.0900001 12.8512 0 13.3012 0 13.7679V15.5679C0 17.4012 1.35 18.9012 3 18.9012H11.25L9.87 26.6512C9.795 27.0179 9.84 27.4179 9.99 27.7512C10.335 28.5012 10.77 29.1845 11.31 29.7845L12 30.5679ZM27 18.9012H30V0.567871H27C26.175 0.567871 25.5 1.31787 25.5 2.23454V17.2345C25.5 18.1512 26.175 18.9012 27 18.9012Z" fill="#6E6E6E"/>
</svg>
