<svg width="30" height="31" viewBox="0 0 30 31" fill="none" xmlns="http://www.w3.org/2000/svg">
<path d="M0 30.5679H5.45455V12.5679H0V30.5679ZM30 14.0679C30 12.4179 28.7727 11.0679 27.2727 11.0679H18.6682L19.9636 4.21287L20.0045 3.73287C20.0045 3.11787 19.7727 2.54787 19.4045 2.14287L17.9591 0.567871L8.98636 10.4529C8.48182 10.9929 8.18182 11.7429 8.18182 12.5679V27.5679C8.18182 29.2179 9.40909 30.5679 10.9091 30.5679H23.1818C24.3136 30.5679 25.2818 29.8179 25.6909 28.7379L29.8091 18.1629C29.9318 17.8179 30 17.4579 30 17.0679V14.0679Z" fill="#023A40"/>
</svg>
